<svg id="ball" xmlns="http://www.w3.org/2000/svg" viewBox="0 0 24.72 24.72"><defs>
  <style>
    #ball:hover .cls-1 {fill:black;}
    .cls-1{fill:#fff;}.cls-1,.cls-2,.cls-3{stroke:#ed1c24;stroke-miterlimit:10;}.cls-2{fill:#ed1c24;}.cls-3{fill:none;stroke-width:0.5px;}
  </style>
  <script>
    let theBall= document.querySelector("#ball");

    function logMyId() {
    console.log("clicked on an element:", this.id); }

    theBall.addEventListener("click", logMyId);
  </script>
</defs><g id="Layer_2" data-name="Layer 2"><g id="Layer_1-2" data-name="Layer 1"><g id="ball"><circle id="ball-2" data-name="ball" class="cls-1" cx="12.36" cy="12.36" r="11.86"/><path id="ball-3" data-name="ball" class="cls-2" d="M14.24,14.56l-1.38.51a1.34,1.34,0,0,1-1.32-.22L10.4,13.9a1.34,1.34,0,0,1-.46-1.25l.25-1.46a1.35,1.35,0,0,1,.86-1l1.38-.51a1.32,1.32,0,0,1,1.32.23l1.14.94a1.35,1.35,0,0,1,.46,1.26l-.25,1.45A1.35,1.35,0,0,1,14.24,14.56Z"/><path id="ball-4" data-name="ball" class="cls-2" d="M23,7.62l-.5,0-.34.68a1.36,1.36,0,0,0,.09,1.34h0a1.34,1.34,0,0,0,1.2.59l.47,0Z"/><path id="ball-5" data-name="ball" class="cls-2" d="M22.83,17.11l-.36-.35-.74.23a1.35,1.35,0,0,0-.91,1h0a1.36,1.36,0,0,0,.39,1.28l.34.32Z"/><path id="ball-6" data-name="ball" class="cls-2" d="M3.3,5.35l.27.41.77,0A1.33,1.33,0,0,0,5.45,5h0a1.34,1.34,0,0,0-.07-1.34l-.26-.39Z"/><path id="ball-7" data-name="ball" class="cls-2" d="M13.79.71l-.24.44L14,1.8a1.36,1.36,0,0,0,1.18.63h0a1.34,1.34,0,0,0,1.14-.7l.22-.41Z"/><path id="ball-8" data-name="ball" class="cls-2" d="M10.78,24.2l1,0,.12-.49-.56-.52a1.33,1.33,0,0,0-1.3-.31l-.74.22-.17.72Z"/><path id="ball-9" data-name="ball" class="cls-2" d="M1.44,16.29l.49.86L2.41,17l.22-.74A1.36,1.36,0,0,0,2.31,15l-.53-.56-.71.18Z"/><line id="ball-10" data-name="ball" class="cls-3" x1="4.71" y1="5.31" x2="10.66" y2="10.74"/><line id="ball-11" data-name="ball" class="cls-3" x1="2.67" y1="15.69" x2="10.39" y2="13.23"/><line id="ball-12" data-name="ball" class="cls-3" x1="12.19" y1="15.05" x2="10.66" y2="23.57"/><line id="ball-13" data-name="ball" class="cls-3" x1="14.11" y1="13.91" x2="22.38" y2="17.82"/><line id="ball-14" data-name="ball" class="cls-3" x1="14.14" y1="11.76" x2="22.83" y2="8.65"/><line id="ball-15" data-name="ball" class="cls-3" x1="13.03" y1="10.21" x2="14.56" y2="1.58"/></g></g></g></svg>
