<svg id="goal" xmlns="http://www.w3.org/2000/svg" viewBox="0 0 37.8 26.21"><defs>
  <style>
    #goal:hover .cls-1 {fill:black;}

    .cls-1{fill:#fff;}.cls-1,.cls-2,.cls-3,.cls-4,.cls-5{stroke:#ed1c24;}.cls-1,.cls-2,.cls-3,.cls-4,.cls-5,.cls-6{stroke-miterlimit:10;}.cls-2{fill:#ed1c24;}.cls-3,.cls-4,.cls-5,.cls-6{fill:none;}.cls-3{stroke-width:0.5px;}.cls-4,.cls-6{stroke-width:2px;}.cls-6{stroke:#fff;}</style>
  <script>
    let theGoal= document.querySelector("#goal");

    function logMyId() {
    console.log("clicked on an element:", this.id); }

    theGoal.addEventListener("click", logMyId);
  </script>
</defs><g id="Layer_2" data-name="Layer 2"><g id="Layer_1-2" data-name="Layer 1"><g id="goal"><circle id="goal-2" data-name="goal" class="cls-1" cx="17.49" cy="10.74" r="4.31"/><path id="goal-3" data-name="goal" class="cls-2" d="M17.92,11.63h0a1,1,0,0,1-.94-.16h0a1,1,0,0,1-.33-.89h0a.93.93,0,0,1,.61-.73h0a.94.94,0,0,1,.94.16h0a.93.93,0,0,1,.33.89h0A1,1,0,0,1,17.92,11.63Z"/><path id="goal-4" data-name="goal" class="cls-2" d="M21.29,9h-.15L21,9.28a.47.47,0,0,0,0,.46h0a.37.37,0,0,0,.37.2h.15Z"/><path id="goal-5" data-name="goal" class="cls-2" d="M21.27,12.44l-.12-.11-.26.08a.53.53,0,0,0-.32.35h0a.42.42,0,0,0,.11.43l.12.1Z"/><path id="goal-6" data-name="goal" class="cls-2" d="M14.21,8.22l.09.14.27,0a.49.49,0,0,0,.4-.26h0a.41.41,0,0,0,0-.44l-.09-.13Z"/><path id="goal-7" data-name="goal" class="cls-2" d="M18,6.53l-.08.15.16.23a.56.56,0,0,0,.44.24h0a.4.4,0,0,0,.39-.21L19,6.8Z"/><path id="goal-8" data-name="goal" class="cls-2" d="M17,15h.33l0-.16-.19-.18a.47.47,0,0,0-.43-.1l-.24.08-.06.23Z"/><path id="goal-9" data-name="goal" class="cls-2" d="M13.52,12.17l.18.31.18,0,.07-.27a.47.47,0,0,0-.11-.47l-.19-.2-.26.06Z"/><line id="goal-10" data-name="goal" class="cls-3" x1="14.71" y1="8.18" x2="16.87" y2="10.15"/><line id="goal-11" data-name="goal" class="cls-3" x1="13.97" y1="11.95" x2="16.77" y2="11.05"/><line id="goal-12" data-name="goal" class="cls-3" x1="17.43" y1="11.71" x2="16.87" y2="14.81"/><line id="goal-13" data-name="goal" class="cls-3" x1="18.12" y1="11.3" x2="21.13" y2="12.72"/><line id="goal-14" data-name="goal" class="cls-3" x1="18.13" y1="10.52" x2="21.29" y2="9.39"/><line id="goal-15" data-name="goal" class="cls-3" x1="17.73" y1="9.96" x2="18.29" y2="6.82"/><line id="goal-16" data-name="goal" class="cls-4" x1="2.47" y1="1" x2="37.8" y2="1"/><line id="goal-17" data-name="goal" class="cls-4" x1="2.47" x2="2.47" y2="24.35"/><path id="goal-18" data-name="goal" class="cls-4" d="M3.7,1.72C4.08,2.57,8,5.31,9,7.75c1.51,3.75.11-.06,1.51,3.75.92,2.5.66,1.61,1.76,11,.4,3.33-.21-1.9.22,1.87"/><line id="goal-19" data-name="goal" class="cls-5" x1="20.55" y1="15.92" x2="22.6" y2="20"/><line id="goal-20" data-name="goal" class="cls-5" x1="22.81" y1="14.78" x2="24.87" y2="18.87"/><line id="goal-21" data-name="goal" class="cls-5" x1="18.19" y1="17.11" x2="20.25" y2="21.19"/><line id="goal-22" data-name="goal" class="cls-6" x1="0.01" y1="25.21" x2="14.31" y2="25.09"/></g></g></g></svg>
